<?xml version="1.0" encoding="UTF-8"?>
<!DOCTYPE svg PUBLIC "-//W3C//DTD SVG 1.1//EN" "http://www.w3.org/Graphics/SVG/1.1/DTD/svg11.dtd">
<!-- Creator: CorelDRAW 2019 (64 Bit Versão de avaliação) -->
<svg xmlns="http://www.w3.org/2000/svg" xml:space="preserve" width="84.6667mm" height="5.9668mm" version="1.1" style="shape-rendering:geometricPrecision; text-rendering:geometricPrecision; image-rendering:optimizeQuality; fill-rule:evenodd; clip-rule:evenodd"
viewBox="0 0 1292.24 91.07"
 xmlns:xlink="http://www.w3.org/1999/xlink">
 <defs>
  <style type="text/css">
   <![CDATA[
    .fil1 {fill:#F53447}
    .fil0 {fill:white}
   ]]>
  </style>
 </defs>
 <g id="Camada_x0020_1">
  <metadata id="CorelCorpID_0Corel-Layer"/>
  <g id="_2080662125568">
   <polygon class="fil0" points="759.69,38.82 759.69,90.95 736.96,90.95 736.96,0 753.04,0 782.43,29.39 811.81,0 827.89,0 827.89,90.95 805.17,90.95 805.17,38.82 782.43,61.56 "/>
   <path class="fil0" d="M634.65 0l23.71 0.12 43.54 0 23.69 -0.12 0 91.07 -22.72 0 0 -22.74 -45.48 0 0 22.74 -22.74 0 0 -91.07zm33.14 22.85l-10.4 -0.12 0 22.86 45.48 0 -0.02 -22.86 -10.4 0.12 -24.66 0z"/>
   <polygon class="fil0" points="623.28,0 623.28,22.74 565.49,22.74 555.09,22.74 555.09,68.21 565.49,68.21 600.56,68.21 600.56,56.85 566.46,56.85 566.46,34.11 623.28,34.11 623.28,90.95 556.06,90.95 532.21,90.95 532.35,0 556.06,0 "/>
   <path class="fil0" d="M430.05 0l23.71 0.12 43.54 0 23.69 -0.12 0 91.07 -22.72 0 0 -22.74 -45.48 0 0 22.74 -22.74 0 0 -91.07zm33.14 22.85l-10.4 -0.12 0 22.86 45.48 0 -0.02 -22.86 -10.4 0.12 -24.66 0z"/>
   <polygon class="fil0" points="418.68,0 418.68,22.74 360.88,22.74 350.48,22.74 350.48,68.21 360.88,68.21 395.96,68.21 395.96,56.85 361.85,56.85 361.85,34.11 418.68,34.11 418.68,90.95 351.45,90.95 327.61,90.95 327.74,0 351.45,0 "/>
   <polygon class="fil0" points="248.18,68.21 316.38,68.21 316.38,90.95 225.44,90.95 225.44,0 316.38,0 316.38,22.74 248.18,22.74 248.18,34.11 316.38,34.11 316.38,56.85 248.18,56.85 "/>
   <polygon class="fil0" points="145.88,38.82 145.88,90.95 123.14,90.95 123.14,0 139.22,0 168.61,29.39 197.99,0 214.07,0 214.07,90.95 191.35,90.95 191.35,38.82 168.61,61.56 "/>
   <polygon class="fil0" points="1107.55,45.53 1078.12,16.12 1078.12,0 1094.22,0 1123.66,29.43 1153.07,0 1169.17,0 1169.17,16.12 1139.76,45.53 1169.17,74.97 1169.17,91.07 1153.07,91.07 1123.66,61.64 1094.22,91.07 1078.12,91.07 1078.12,74.97 "/>
   <polygon class="fil0" points="1066.75,91.07 1043.98,91.07 1043.98,0 1066.75,0 "/>
   <polygon class="fil0" points="964.33,38.87 964.33,91.07 941.56,91.07 941.56,0 957.67,0 987.1,29.43 1016.51,0 1032.61,0 1032.61,91.07 1009.86,91.07 1009.86,38.87 987.1,61.64 "/>
   <polygon class="fil0" points="862,68.21 930.19,68.21 930.19,90.95 839.26,90.95 839.26,0 930.19,0 930.19,22.74 862,22.74 862,34.11 930.19,34.11 930.19,56.85 862,56.85 "/>
   <path class="fil1" d="M111.77 0l-111.77 0 0 77.65 13.3 13.3 98.47 0 0 -90.95zm-83.16 36.38l18.19 0 0 -18.19 18.19 0 0 18.19 18.2 0 0 18.19 -18.2 0 0 18.2 -18.19 0 0 -18.2 -18.19 0 0 -18.19z"/>
   <path class="fil1" d="M1292.24 0l-111.7 0 0 91.07 98.39 0 13.31 -13.32 0 -77.75zm-46.73 36.42l-18.21 0 0 18.21 -18.21 0 0 -18.21 18.22 -0 0 -18.21 18.21 0 0 18.21zm-18.21 18.22l18.21 0 0 18.21 -18.21 0 0 -18.21zm18.21 -0l0 -18.21 18.21 0 0 18.21 -18.21 0z"/>
  </g>
 </g>
</svg>
