<?xml version="1.0" encoding="UTF-8"?>
<!DOCTYPE svg PUBLIC "-//W3C//DTD SVG 1.1//EN" "http://www.w3.org/Graphics/SVG/1.1/DTD/svg11.dtd">
<!-- Creator: CorelDRAW 2019 (64 Bit Versão de avaliação) -->
<svg xmlns="http://www.w3.org/2000/svg" xml:space="preserve" width="42.3334mm" height="42.3334mm" version="1.1" style="shape-rendering:geometricPrecision; text-rendering:geometricPrecision; image-rendering:optimizeQuality; fill-rule:evenodd; clip-rule:evenodd"
viewBox="0 0 455.07 455.07"
 xmlns:xlink="http://www.w3.org/1999/xlink">
 <defs>
  <style type="text/css">
   <![CDATA[
    .fil1 {fill:#F53447}
    .fil0 {fill:white}
   ]]>
  </style>
 </defs>
 <g id="Camada_x0020_1">
  <metadata id="CorelCorpID_0Corel-Layer"/>
  <g id="_2079515616336">
   <polygon class="fil0" points="455.06,364.05 455.06,455.06 341.37,455.06 341.37,364.05 "/>
   <polygon class="fil0" points="113.79,364.05 113.79,455.06 0,455.06 0,364.05 "/>
   <polygon class="fil0" points="283.59,91.02 374.57,0 455.06,0 455.06,91.02 "/>
   <polygon class="fil0" points="0,91.02 0,0 80.49,0 171.52,91.02 "/>
   <polygon class="fil0" points="455.06,341.3 455.06,113.77 260.85,113.77 227.58,147.06 194.28,113.77 0,113.77 0,341.3 "/>
   <polygon class="fil0" points="318.6,364.05 227.58,455.06 136.55,364.05 "/>
   <polygon class="fil1" points="91.03,159.27 136.54,159.27 136.54,204.78 182.04,204.78 182.04,204.78 182.04,250.29 182.04,250.29 136.54,250.29 136.54,295.79 136.54,295.79 91.03,295.79 91.03,295.79 91.03,250.29 45.51,250.29 45.51,204.78 91.03,204.78 "/>
   <path class="fil1" d="M318.54 159.27l45.51 0 0 45.51 -45.51 0 0 -45.51zm45.51 45.51l45.51 0 0 45.51 -45.51 0 0 -45.51zm0 45.51l0 45.51 -45.51 0 0 -45.51 45.51 0zm-45.51 0l-45.51 0 0 -45.51 45.51 0 0 45.51z"/>
  </g>
 </g>
</svg>
